<?xml version="1.0" encoding="UTF-8"?>
<!DOCTYPE svg PUBLIC "-//W3C//DTD SVG 1.1//EN" "http://www.w3.org/Graphics/SVG/1.1/DTD/svg11.dtd">
<!-- Creator: CorelDRAW X8 -->
<svg xmlns="http://www.w3.org/2000/svg" xml:space="preserve" width="1000px" height="1000px" version="1.1" style="shape-rendering:geometricPrecision; text-rendering:geometricPrecision; image-rendering:optimizeQuality; fill-rule:evenodd; clip-rule:evenodd"
viewBox="0 0 10000 10000"
 xmlns:xlink="http://www.w3.org/1999/xlink">
 <defs>
  <style type="text/css">
   <![CDATA[
    .str2 {stroke:white;stroke-width:39.9922}
    .str1 {stroke:black;stroke-width:29.9882}
    .str0 {stroke:black;stroke-width:29.9882;stroke-dasharray:89.964638 29.988213}
    .fil7 {fill:none}
    .fil2 {fill:black}
    .fil4 {fill:black}
    .fil5 {fill:#FFD702}
    .fil3 {fill:#FFD702}
    .fil6 {fill:#FFD800}
    .fil1 {fill:#FFD800}
    .fil0 {fill:white}
   ]]>
  </style>
 </defs>
 <g id="Слой_x0020_1">
  <metadata id="CorelCorpID_0Corel-Layer"/>
  <g id="_2114756756272">
   <path class="fil0" d="M322 274c-6,-6 -13,-9 -20,-9 -8,0 -15,3 -21,9l-18 19c-2,-1 -3,-2 -5,-3 -2,-1 -4,-2 -6,-3 -17,-11 -33,-26 -48,-44 -8,-10 -13,-17 -16,-25 5,-5 9,-10 13,-14 2,-2 4,-3 5,-5 13,-12 13,-28 0,-41l-16 -16c-2,-2 -3,-4 -5,-6 -4,-3 -7,-7 -11,-11 -6,-5 -13,-8 -20,-8 -7,0 -14,3 -20,8 0,0 0,0 0,1l-20 20c-8,7 -12,17 -13,27 -2,18 3,34 7,44 10,26 24,50 46,76 25,30 57,55 92,72 14,6 32,14 52,15 1,0 3,1 4,1 14,0 25,-5 34,-15 0,0 0,0 0,0 3,-4 7,-8 11,-11 2,-3 5,-5 7,-8 6,-6 9,-13 9,-20 0,-8 -3,-15 -9,-20l-32 -33zm21 62c0,0 0,0 0,0 -3,3 -5,5 -7,7 -4,4 -8,8 -12,12 -6,7 -13,10 -22,10 -1,0 -2,0 -3,0 -17,-2 -34,-8 -46,-14 -33,-16 -63,-39 -87,-69 -20,-24 -34,-46 -43,-70 -5,-15 -7,-27 -6,-37 0,-7 3,-13 8,-18l20 -20c3,-3 6,-4 9,-4 4,0 7,2 9,4 0,0 0,0 0,0 3,3 7,7 10,11 2,1 4,3 6,5l16 16c6,7 6,12 0,19 -2,1 -3,3 -5,5 -5,5 -10,10 -15,14 0,0 0,0 0,1 -5,5 -4,10 -3,13 0,0 0,0 0,0 4,11 10,20 19,32l0 0c17,20 34,35 53,47 2,2 5,3 7,4 2,1 4,2 6,4 0,0 0,0 1,0 2,1 3,1 5,1 5,0 8,-3 9,-4l21 -20c2,-2 5,-4 9,-4 3,0 6,2 8,4 0,0 0,0 0,0l33 33c6,6 6,12 0,18z"/>
   <path class="fil0" d="M252 167c15,3 29,10 40,21 12,12 19,26 22,41 0,4 4,7 7,7 1,0 1,0 2,0 4,-1 7,-5 6,-10 -3,-18 -12,-35 -25,-49 -14,-14 -31,-22 -50,-26 -4,0 -8,3 -9,7 -1,4 2,8 7,9z"/>
   <path class="fil0" d="M380 224c-5,-31 -20,-59 -42,-81 -22,-23 -51,-37 -81,-42 -5,-1 -9,2 -10,6 0,5 3,9 7,9 28,5 53,18 73,38 20,20 33,45 37,73 1,4 4,6 8,6 1,0 1,0 1,0 5,-1 8,-5 7,-9z"/>
   <path class="fil1" d="M2006 980l-208 -152c-4,-3 -10,-3 -14,0l-208 152c-5,4 -6,11 -3,16 4,5 11,6 16,3l202 -148 202 148c2,1 4,2 7,2 3,0 7,-2 9,-5 4,-5 3,-12 -3,-16z"/>
   <path class="fil1" d="M1951 1001c-6,0 -11,5 -11,12l0 182 -92 0 0 -100c0,-31 -25,-57 -57,-57 -31,0 -57,26 -57,57l0 100 -91 0 0 -182c0,-7 -6,-12 -12,-12 -6,0 -11,5 -11,12l0 193c0,6 5,12 11,12l114 0c6,0 11,-5 12,-11 0,0 0,-1 0,-1l0 -111c0,-19 15,-34 34,-34 19,0 34,15 34,34l0 111c0,0 1,1 1,1 0,6 5,11 11,11l114 0c7,0 12,-6 12,-12l0 -193c0,-7 -5,-12 -12,-12z"/>
   <path class="fil1" d="M1275 971c0,0 0,-1 0,-2 -1,-2 -2,-5 -4,-6l-63 -44 0 -47c0,-6 -5,-11 -12,-11l-72 0 -62 -43c-4,-3 -9,-3 -13,0l-62 43 -72 0c-6,0 -11,5 -11,11l0 46 -63 44c-3,2 -5,6 -5,9 0,0 0,0 0,0l0 245c0,3 1,6 3,8 3,2 5,3 8,3 0,0 0,0 0,0l418 -1c6,0 11,-5 11,-11l-1 -244zm-67 -25l36 25 -36 25 0 -50zm-152 -105l28 20 -57 0 29 -20zm-129 42l258 0 0 129 -87 60 -35 -27c0,0 0,0 0,0 -4,-3 -10,-3 -14,0l-36 28 -86 -60 0 -130zm-23 63l0 51 -37 -26 37 -25zm-46 47l137 94 -136 106 -1 -200zm22 211l176 -136 175 136 -351 0zm237 -117l136 -95 0 201 -136 -106z"/>
   <path class="fil1" d="M1132 928l-152 0c-7,0 -12,5 -12,12 0,6 5,11 12,11l152 0c6,0 11,-5 11,-11 0,-7 -5,-12 -11,-12z"/>
   <path class="fil1" d="M1132 987l-152 0c-7,0 -12,5 -12,11 0,6 5,11 12,11l152 0c6,0 11,-5 11,-11 0,-6 -5,-11 -11,-11z"/>
   <path class="fil1" d="M335 1228c2,0 3,0 4,0 17,0 31,-6 42,-18 0,0 0,0 0,0 4,-4 8,-8 12,-13 3,-2 6,-5 9,-9 15,-15 15,-35 0,-50l-38 -38c-7,-8 -16,-11 -25,-11 -9,0 -18,3 -25,11l-21 21c-1,-1 -3,-2 -4,-2 -3,-2 -5,-3 -7,-4 -21,-13 -39,-30 -57,-52 -8,-11 -14,-20 -18,-28 5,-5 10,-10 15,-15 2,-2 4,-4 6,-6 8,-8 12,-17 12,-26 0,-9 -4,-17 -12,-25l-19 -19c-2,-2 -4,-4 -6,-6 -5,-5 -9,-9 -13,-13 -7,-7 -16,-11 -25,-11 -9,0 -17,4 -25,11l-24 24c-9,9 -14,20 -15,33 -2,21 4,40 9,52 11,31 28,59 53,90 31,36 68,65 110,86 16,7 38,16 62,18zm-155 -118c-23,-29 -39,-55 -50,-83 -6,-17 -8,-31 -7,-43 0,-8 3,-14 9,-20l24 -24c2,-2 5,-4 9,-4 4,0 7,2 9,4 5,4 9,9 13,13 2,2 4,4 7,7l19 19c2,2 5,6 5,9 0,4 -3,8 -5,10 -2,2 -4,4 -6,6 -6,6 -12,12 -18,17 0,0 0,0 0,1 -7,6 -6,13 -4,17 0,0 0,0 0,1 5,12 12,23 23,37 19,24 40,42 62,57 3,1 6,3 9,4 2,2 5,3 7,4 0,0 0,0 1,0 7,4 13,3 19,-3l24 -24c2,-2 5,-5 9,-5 4,0 7,3 9,5l39 39c6,6 6,12 -1,19 -2,3 -5,6 -8,9 -5,4 -9,9 -14,14 -6,7 -14,10 -25,10 -1,0 -2,0 -3,0 -20,-1 -39,-9 -54,-16 -39,-19 -73,-46 -102,-80z"/>
   <path class="fil1" d="M365 1055c12,3 25,5 37,5 77,0 139,-55 139,-123 0,-67 -62,-122 -139,-122 -76,0 -138,55 -138,122 0,26 10,51 27,72 -4,6 -8,11 -14,15 -5,3 -7,9 -6,15 1,6 6,11 12,11 12,2 35,3 56,-10 5,-3 7,-10 4,-15 -3,-5 -10,-7 -15,-4 -8,5 -17,7 -24,8 4,-5 7,-11 10,-18 1,-4 0,-8 -2,-11 -17,-18 -26,-40 -26,-63 0,-55 52,-100 116,-100 64,0 117,45 117,100 0,55 -53,101 -117,101 -10,0 -21,-2 -31,-4 -6,-2 -12,2 -14,8 -1,6 2,12 8,13z"/>
   <circle class="fil1" cx="402" cy="937" r="12"/>
   <circle class="fil1" cx="444" cy="937" r="12"/>
   <circle class="fil1" cx="361" cy="937" r="12"/>
   <rect class="fil2" x="2027" y="2413" width="81.6689" height="32.6677"/>
   <path class="fil2" d="M2220 2551l-63 -94 0 -77c0,-86 -74,-155 -165,-155 -87,-2 -159,68 -161,155l0 327c0,9 7,16 16,16 0,0 0,0 0,0l163 0c9,0 17,-7 17,-16 0,0 0,0 0,0l0 -49 114 0c9,0 16,-8 16,-17 0,0 0,0 0,0l0 -65 49 0c9,0 17,-7 17,-16 0,-4 -1,-7 -3,-9zm-79 -8c-9,0 -16,8 -16,17 0,0 0,0 0,0l0 65 -115 0c-9,0 -16,7 -16,16 0,0 0,0 0,0l0 49 -131 0 0 -310c2,-69 60,-124 129,-123 72,0 133,57 133,123l0 82c0,3 1,6 2,9l49 72 -35 0 0 0z"/>
   <path class="fil2" d="M1994 2282c-54,0 -98,37 -98,82 0,9 7,16 16,16 0,0 0,0 0,0l164 0c9,0 16,-7 16,-16 0,0 0,0 0,0 0,-45 -44,-82 -98,-82zm-62 65c13,-21 37,-34 62,-32 25,-2 49,11 62,32l-124 0z"/>
   <path class="fil2" d="M2449 2176c-1,-3 -3,-5 -6,-6l-81 -49c-8,-5 -18,-2 -23,6 -1,2 -2,5 -2,8l0 33 -147 0c-9,0 -16,7 -16,16 0,0 0,0 0,0l0 49 -33 0 0 33 49 0c9,0 16,-8 16,-17 0,0 0,0 0,0l0 -49 131 0 0 33c0,9 7,16 16,16 3,0 6,0 9,-2l81 -49c8,-5 11,-15 6,-22zm-79 28l0 -40 33 20 -33 20z"/>
   <path class="fil3" d="M2464 1863c-3,-4 -8,-6 -13,-6l-50 0 -16 -46c-2,-6 -8,-11 -15,-11 -7,0 -14,5 -16,11l-15 46 -51 0c-9,0 -16,8 -16,17 0,4 2,9 5,12l43 37 -16 52c-3,9 2,18 10,20 5,2 11,1 15,-2l41 -31 40 31c7,5 18,4 23,-3 3,-4 4,-10 3,-15l-16 -52 42 -37c7,-6 8,-16 2,-23zm-74 42c-5,4 -7,11 -5,17l4 14 -9 -8c-6,-4 -14,-4 -20,0l-10 8 4 -14c2,-6 0,-13 -5,-17l-17 -15 18 0c7,0 14,-5 16,-11l4 -11 4 11c2,6 8,11 15,11l19 0 -18 15z"/>
   <path class="fil3" d="M2470 1990c-10,12 -22,22 -35,29l16 29c17,-10 32,-22 44,-37l-25 -21z"/>
   <path class="fil3" d="M2341 1745c-19,4 -37,10 -53,20l16 28c13,-7 28,-13 43,-15l-6 -33z"/>
   <path class="fil3" d="M2398 1745l-6 33c15,2 29,7 43,15l16 -28c-17,-10 -35,-16 -53,-20z"/>
   <path class="fil3" d="M2239 1907l-33 0c0,19 4,38 10,55l31 -11c-5,-14 -8,-29 -8,-44z"/>
   <path class="fil3" d="M2270 1990l-25 21c12,15 27,27 43,37l17 -28c-14,-8 -25,-18 -35,-30z"/>
   <path class="fil3" d="M2244 1802c-12,14 -21,31 -28,49l31 11c5,-14 13,-28 22,-39l-25 -21z"/>
   <path class="fil3" d="M2530 1906l-30 0c0,16 -2,31 -7,45l30 11c7,-18 10,-37 10,-56l-3 0z"/>
   <path class="fil3" d="M2393 2035c-15,3 -31,3 -46,0l-5 32c18,3 37,3 56,0l-5 -32z"/>
   <path class="fil3" d="M2494 1801l-24 21c9,12 17,25 22,39l31 -11c-7,-18 -16,-35 -29,-49z"/>
   <path class="fil3" d="M2807 2559l-29 1c0,15 -3,30 -8,44l31 11c6,-18 10,-37 10,-56l-4 0z"/>
   <path class="fil3" d="M2547 2644l-25 21c13,14 27,27 44,36l16 -28c-13,-8 -25,-18 -35,-29z"/>
   <path class="fil3" d="M2670 2688c-15,3 -30,3 -45,0l-6 33c19,3 38,3 57,-1l-6 -32z"/>
   <path class="fil3" d="M2772 2454l-25 21c10,12 18,25 23,39l31 -11c-7,-18 -17,-34 -29,-49z"/>
   <path class="fil3" d="M2748 2644c-10,11 -22,21 -35,29l16 28c17,-9 31,-22 44,-36l-25 -21z"/>
   <path class="fil3" d="M2675 2399l-5 32c15,2 29,8 42,15l17 -28c-17,-10 -35,-16 -54,-19z"/>
   <path class="fil3" d="M2517 2560l-33 0c0,19 3,38 10,56l31 -11c-6,-15 -8,-30 -8,-45z"/>
   <path class="fil3" d="M2522 2455c-12,15 -22,31 -28,49l30 11c6,-14 13,-27 23,-39l-25 -21z"/>
   <path class="fil3" d="M2619 2399c-19,3 -37,10 -54,19l17 29c13,-8 27,-13 42,-16l-5 -32z"/>
   <path class="fil3" d="M2619 2007c-19,3 -37,10 -54,19l17 29c13,-8 27,-13 42,-16l-5 -32z"/>
   <path class="fil3" d="M2547 2252l-25 21c13,14 27,27 44,36l16 -28c-13,-8 -25,-18 -35,-29z"/>
   <path class="fil3" d="M2517 2168l-33 0c0,19 3,38 10,56l31 -11c-6,-15 -8,-30 -8,-45z"/>
   <path class="fil3" d="M2748 2252c-10,11 -22,21 -35,29l16 28c17,-9 31,-22 44,-36l-25 -21z"/>
   <path class="fil3" d="M2772 2062l-25 21c10,12 18,25 23,39l31 -11c-7,-18 -17,-34 -29,-49z"/>
   <path class="fil3" d="M2522 2063c-12,15 -22,31 -28,49l30 11c6,-14 13,-27 23,-39l-25 -21z"/>
   <path class="fil3" d="M2807 2167l-29 1c0,15 -3,30 -8,44l31 11c6,-18 10,-37 10,-56l-4 0z"/>
   <path class="fil3" d="M2675 2007l-5 32c15,2 29,8 42,15l17 -28c-17,-10 -35,-16 -54,-19z"/>
   <path class="fil3" d="M2670 2296c-15,3 -30,3 -45,0l-6 33c19,3 38,3 57,-1l-6 -32z"/>
   <path class="fil3" d="M2647 2478c-45,0 -81,37 -81,82 0,45 36,81 81,81 45,0 82,-36 82,-81 0,-45 -37,-82 -82,-82zm0 131c-27,0 -49,-22 -49,-49 0,-27 22,-49 49,-49 27,0 49,22 49,49 0,27 -22,49 -49,49z"/>
   <path class="fil3" d="M2713 2086c0,0 0,0 0,0l-131 0c-9,0 -16,7 -16,16 0,0 0,0 0,0l0 131c0,9 7,16 16,16 0,0 0,0 0,0l131 0c9,0 16,-7 16,-16 0,0 0,0 0,0l0 -131c0,-9 -7,-16 -16,-16zm-17 131l-98 0 0 -98 98 0 0 98z"/>
   <path class="fil2" d="M2171 1898c-1,-2 -3,-4 -5,-6l-82 -49c-8,-4 -18,-2 -22,6 -2,2 -3,5 -3,8l0 33 -98 0c-9,0 -16,7 -16,16 0,0 0,0 0,0l0 278 33 0 0 -261 81 0 0 32c0,9 8,17 17,17 3,0 6,-1 8,-3l82 -49c8,-4 10,-14 5,-22zm-79 28l0 -40 34 20 -34 20z"/>
   <path class="fil2" d="M2449 2568c-1,-3 -3,-5 -6,-6l-81 -49c-8,-5 -18,-2 -23,6 -1,2 -2,5 -2,8l0 33 -49 0 0 -229c0,-9 -7,-16 -16,-16 0,0 0,0 0,0l-82 0 0 32 65 0 0 229c0,9 8,16 17,16 0,0 0,0 0,0l65 0 0 33c0,9 7,16 16,16 3,0 6,-1 9,-2l81 -49c8,-5 11,-15 6,-22zm-79 28l0 -40 33 20 -33 20z"/>
   <rect class="fil2" x="2304" y="3989" width="32.6667" height="32.6666"/>
   <path class="fil2" d="M2729 3434l-65 0c0,-37 -30,-66 -66,-66l-32 0c-9,0 -17,8 -17,17l0 49 -163 0c-4,0 -8,1 -12,4l-53 54 -54 -54c-3,-3 -7,-4 -12,-4l-343 0c-9,0 -16,7 -16,16l0 572c0,36 29,65 65,65l235 0 -65 131 -88 0c-27,0 -49,21 -49,49 0,27 22,49 49,49l555 0c27,0 49,-22 49,-49 0,-28 -22,-49 -49,-49l-88 0 -65 -131 235 0c36,0 65,-29 65,-65l0 -572c0,-9 -7,-16 -16,-16zm-147 -33l16 0c18,0 33,14 33,33l0 335c-10,-6 -21,-9 -33,-9l-16 0 0 -359zm-245 121l56 -56 156 0 0 36 0 0 0 275c0,9 8,16 17,16l32 0c18,0 33,14 33,33 0,18 -15,32 -33,32l-212 0c-4,0 -8,2 -12,5l-37 37 0 -378zm-408 -56l320 0 55 56 0 378 -37 -37c-3,-3 -7,-5 -12,-5l-326 0 0 -392zm0 425l320 0 32 33 -352 0 0 -33zm669 359c9,0 17,8 17,17 0,9 -8,16 -17,16l-555 0c-9,0 -16,-7 -16,-16 0,-9 7,-17 16,-17l555 0zm-124 -32l-307 0 66 -131 176 0 65 131zm239 -196c0,18 -15,32 -33,32l-719 0c-18,0 -32,-14 -32,-32l0 -66 784 0 0 66zm0 -98l-353 0 33 -33 320 0 0 33zm0 -66l-58 0c5,-10 9,-21 9,-32l0 -360 49 0 0 392z"/>
   <path class="fil1" d="M2549 3515l0 33 -65 0 0 -33 65 0zm0 66l0 32 -163 0 0 -32 163 0zm0 65l0 33 -163 0 0 -33 163 0zm0 65l0 33 -163 0 0 -33 163 0z"/>
   <rect class="fil1" x="2010" y="3515" width="32.6667" height="32.6666"/>
   <rect class="fil1" x="1978" y="3581" width="277.669" height="32.6666"/>
   <rect class="fil1" x="1978" y="3646" width="277.669" height="32.6666"/>
   <rect class="fil1" x="1978" y="3711" width="277.669" height="32.6666"/>
   <rect class="fil1" x="1978" y="3777" width="212.335" height="32.6666"/>
   <rect class="fil1" x="2076" y="3515" width="179.668" height="32.6666"/>
   <rect class="fil1" x="2419" y="3515" width="32.6667" height="32.6666"/>
   <rect class="fil1" x="2386" y="3777" width="114.335" height="32.6666"/>
   <path class="fil2" d="M1945 4120c-45,-1 -82,-37 -82,-82l0 -196 -32 0 0 196c0,63 51,114 114,114l49 0 0 -32 -49 0z"/>
   <rect class="fil2" x="1831" y="3777" width="32.6667" height="32.6666"/>
   <rect class="fil2" x="2778" y="3499" width="32.6667" height="343.001"/>
   <rect class="fil2" x="2778" y="3875" width="32.6667" height="32.6666"/>
   <path class="fil3" d="M3798 2219c5,-10 8,-22 8,-34 0,-45 -37,-82 -82,-82 -45,0 -82,37 -82,82 1,12 3,24 8,34 -51,9 -89,53 -89,106l0 154c0,9 7,16 16,16 0,0 0,0 0,0l49 0 0 213c0,9 7,16 16,16 0,0 0,0 0,0l164 0c9,0 16,-7 16,-16 0,0 0,0 0,0l0 -213 49 0c9,0 16,-7 16,-16 0,0 0,0 0,0l0 -154c0,-53 -37,-97 -89,-106zm57 244l-33 0 0 -164 -33 0 0 392 -49 0 0 -228 -32 0 0 228 -49 0 0 -392 -33 0 0 164 -33 0 0 -138c1,-41 34,-74 75,-75l13 0c9,0 17,-7 17,-16 0,-5 -2,-9 -6,-12 -11,-9 -17,-23 -17,-37 0,-27 22,-49 49,-49 27,0 49,22 49,49 0,14 -6,28 -17,37 -7,6 -7,16 -1,23 3,3 7,5 12,5l14 0c41,1 74,34 74,75l0 138z"/>
   <path class="fil3" d="M4377 1809c-27,0 -48,-21 -49,-49 0,-9 -7,-16 -16,-16 -9,0 -16,7 -16,16 0,28 -22,49 -49,49 -9,0 -17,8 -17,17 0,9 8,16 17,16 27,0 49,22 49,49 0,9 7,16 16,16 9,0 16,-7 16,-16 1,-27 22,-49 49,-49 10,0 17,-7 17,-16 0,-9 -7,-17 -17,-17zm-65 33c-4,-6 -10,-12 -16,-16 6,-5 12,-10 16,-17 5,7 10,12 17,17 -7,4 -12,10 -17,16z"/>
   <path class="fil2" d="M4525 2610c-1,0 -1,0 -1,0l-65 0 0 -49c0,-9 -7,-17 -16,-17 0,0 0,0 0,0l-33 0 0 -387 129 -225c4,-8 2,-17 -5,-22l-49 -32c-4,-3 -9,-4 -13,-3 -5,1 -8,4 -11,8l-73 125c-16,-42 -64,-62 -106,-46 -21,8 -38,25 -46,46l-73 -125c-5,-8 -15,-11 -22,-6 -1,0 -1,0 -1,1l-49 32c-7,5 -10,14 -5,22l128 225 0 387 -33 0c-9,0 -16,8 -16,17 0,0 0,0 0,0l0 49 -65 0c-9,0 -17,7 -17,16 0,0 0,0 0,0l0 98 33 0 0 -82 65 0c10,0 17,-7 17,-16 0,0 0,0 0,0l0 -49 229 0 0 49c-1,9 7,16 16,16 0,0 0,0 0,0l65 0 0 82 33 0 0 -98c0,-9 -7,-16 -16,-16zm-148 -458l0 392 -49 0 0 -196 -32 0 0 196 -49 0 0 -392c0,-2 -1,-5 -2,-8l-123 -215 21 -15 106 181c3,5 8,8 14,8l6 0c9,0 17,-7 17,-16 0,-5 -2,-9 -6,-12 -11,-9 -17,-23 -17,-37 0,-27 22,-49 49,-49 27,0 49,22 49,49 0,14 -6,28 -17,37 -7,6 -7,16 -1,23 3,3 7,5 12,5l6 0c6,0 11,-3 14,-8l106 -181 22 15 -123 215c-2,3 -3,6 -3,8z"/>
   <rect class="fil3" x="4018" y="2120" width="32.6666" height="32.6665"/>
   <rect class="fil3" x="4083" y="2152" width="32.6666" height="32.6665"/>
   <rect class="fil3" x="4149" y="2185" width="32.6666" height="32.6665"/>
   <rect class="fil3" x="4018" y="2234" width="32.6666" height="32.6665"/>
   <rect class="fil3" x="4083" y="2267" width="32.6666" height="32.6665"/>
   <rect class="fil3" x="4149" y="2299" width="32.6666" height="32.6665"/>
   <rect class="fil3" x="4443" y="2283" width="32.6666" height="32.6665"/>
   <rect class="fil3" x="4508" y="2316" width="32.6666" height="32.6665"/>
   <rect class="fil3" x="4443" y="2397" width="32.6666" height="32.6665"/>
   <rect class="fil3" x="4508" y="2430" width="32.6666" height="32.6665"/>
   <path class="fil3" d="M4029 1895l-99 -82c-7,-6 -17,-5 -23,2 -2,3 -4,7 -4,11l1 32 -213 0c-9,0 -16,8 -16,17 0,0 0,0 0,0l0 163c0,9 7,16 16,16 0,0 0,0 0,0l66 0c9,0 16,-7 16,-16 0,0 0,0 0,0l0 -82 131 0 0 33c0,9 7,16 16,16 4,0 8,-1 11,-3l98 -82c3,-3 6,-8 5,-13 0,-4 -2,-9 -5,-12zm-93 59l0 -14c0,-9 -7,-16 -16,-16 0,0 0,0 0,0l-163 0c-9,0 -17,7 -17,16 0,0 0,0 0,0l0 82 -32 0 0 -131 212 0c9,0 16,-7 16,-16 0,0 0,0 0,0l0 -14 57 47 -57 46z"/>
   <path class="fil2" d="M4526 3735l-224 0 -57 -57c-2,-3 -6,-5 -10,-5l-230 0c-9,0 -15,7 -15,16l0 46 -108 0 0 -77c0,-5 -2,-10 -7,-13 -4,-3 -10,-3 -15,-1l-24 12 -23 -12c-5,-2 -11,-2 -15,1 -5,3 -7,8 -7,13l0 77 -92 0c-9,0 -16,7 -16,15l0 168c0,9 7,16 16,16l92 0 0 76c0,6 2,11 7,13 4,3 10,3 15,1l23 -12 24 12c2,1 5,2 7,2 3,0 6,-1 8,-3 5,-2 7,-7 7,-13l0 -76 31 0 0 53c0,5 2,9 5,12l56 49 0 284 31 0 0 -291c0,-4 -2,-9 -5,-12l-56 -49 0 -46 46 0 0 15 30 0 0 -31 0 -107 0 -107 46 0 0 46 31 0 0 -46 46 0 0 46 30 0 0 -46 46 0 0 46 31 0 0 -24 31 30 0 233 -27 26c-2,3 -4,7 -4,11l0 306 31 0 0 -300 26 -26c3,-3 4,-7 4,-11l0 -61 215 0c8,0 15,-7 15,-16l0 -168c0,-8 -7,-15 -15,-15zm-735 168l-77 0 0 -138 77 0 0 138zm61 83l-9 -5c-2,-1 -4,-1 -7,-1 -2,0 -4,0 -6,1l-9 5 0 -52 31 0 0 52zm0 -83l-31 0 0 -138 31 0 0 138zm0 -168l-31 0 0 -52 9 4c4,2 9,2 13,0l9 -4 0 52zm138 76l0 92 -62 0 -46 0 0 -138 108 0 0 46zm520 92l-199 0 0 -138 199 0 0 138z"/>
   <path class="fil4" d="M4112 3536c-94,0 -180,59 -214,147l28 11c30,-76 104,-128 186,-128 82,0 157,52 186,128l28 -11c-33,-88 -120,-147 -214,-147z"/>
   <rect class="fil1" x="4510" y="3995" width="30.6248" height="107.188"/>
   <rect class="fil1" x="4510" y="4133" width="30.6248" height="30.6247"/>
   <rect class="fil1" x="4510" y="4194" width="30.6248" height="30.6247"/>
   <rect class="fil1" x="4510" y="4255" width="30.6248" height="30.6247"/>
   <rect class="fil1" x="4449" y="3964" width="30.6248" height="107.188"/>
   <rect class="fil1" x="4449" y="4102" width="30.6248" height="30.6247"/>
   <rect class="fil1" x="4449" y="4163" width="30.6248" height="30.6247"/>
   <rect class="fil1" x="4449" y="4225" width="30.6248" height="30.6247"/>
   <rect class="fil1" x="4388" y="3964" width="30.6248" height="183.751"/>
   <rect class="fil1" x="4388" y="4179" width="30.6248" height="30.6247"/>
   <rect class="fil1" x="4388" y="4240" width="30.6248" height="30.6247"/>
   <rect class="fil1" x="4388" y="4301" width="30.6248" height="30.6247"/>
   <rect class="fil1" x="3806" y="4102" width="30.6248" height="76.5629"/>
   <rect class="fil1" x="3806" y="4209" width="30.6248" height="30.6247"/>
   <rect class="fil1" x="3806" y="4271" width="30.6248" height="30.6247"/>
   <rect class="fil1" x="3745" y="4072" width="30.6248" height="137.812"/>
   <rect class="fil1" x="3745" y="4240" width="30.6248" height="30.6247"/>
   <rect class="fil1" x="3745" y="4301" width="30.6248" height="30.6247"/>
   <rect class="fil1" x="3683" y="3964" width="30.6248" height="107.188"/>
   <rect class="fil1" x="3683" y="4102" width="30.6248" height="30.6247"/>
   <rect class="fil1" x="3683" y="4163" width="30.6248" height="30.6247"/>
   <rect class="fil1" x="3683" y="4225" width="30.6248" height="30.6247"/>
   <rect class="fil1" x="3821" y="3352" width="30.6248" height="61.2506"/>
   <rect class="fil1" x="3821" y="3505" width="30.6248" height="61.2506"/>
   <rect class="fil1" x="3882" y="3444" width="61.2508" height="30.6247"/>
   <rect class="fil1" x="3729" y="3444" width="61.2508" height="30.6247"/>
   <rect class="fil1" x="3821" y="3444" width="30.6248" height="30.6247"/>
   <rect class="fil1" x="4403" y="3428" width="30.6248" height="61.2506"/>
   <rect class="fil1" x="4403" y="3582" width="30.6248" height="61.2506"/>
   <rect class="fil1" x="4464" y="3520" width="61.2508" height="30.6247"/>
   <rect class="fil1" x="4311" y="3520" width="61.2508" height="30.6247"/>
   <rect class="fil1" x="4403" y="3520" width="30.6248" height="30.6247"/>
   <polygon class="fil1" points="4204,3444 4204,3413 4173,3413 4173,3444 4143,3444 4143,3474 4173,3474 4173,3505 4204,3505 4204,3474 4235,3474 4235,3444 "/>
   <path class="fil2" d="M323 2258c-16,0 -31,8 -39,22l-24 40 -1 -3 0 -48 51 -21c17,-7 28,-23 28,-41 0,-14 -7,-27 -19,-36 -11,-8 -26,-10 -39,-5l-6 1 6 -12c7,-13 10,-27 10,-42 0,-25 -20,-45 -45,-45 -17,0 -33,10 -40,25l-40 79 -33 162 0 208 13 64 -44 0 0 110 237 0 0 -110 -48 0 0 -106 29 -44 43 -113c5,-13 7,-26 7,-39 0,-25 -20,-46 -46,-46zm-33 -62c4,-2 8,-1 11,1 3,3 5,6 5,10 0,5 -3,10 -8,12l-39 16 0 -29 31 -10zm16 441l0 48 -174 0 0 -48 174 0zm27 -305l-41 108 -33 50 0 116 -82 0 -13 -65 0 -203 31 -154 38 -77c2,-4 7,-7 12,-7 8,0 14,6 14,13 0,10 -3,19 -7,28l-25 50 0 134 30 61 54 -90c2,-4 7,-7 12,-7 8,0 15,7 15,15 0,9 -2,19 -5,28z"/>
   <path class="fil2" d="M1037 2606l12 -61 0 -208 -32 -161 -41 -83c-7,-15 -23,-25 -40,-25 -25,0 -45,20 -45,45 0,15 3,29 10,42l6 12 -6 -1c-13,-5 -28,-3 -39,5 -12,9 -19,22 -19,36 0,18 11,34 28,41l51 21 0 48 -1 3 -24 -40c-8,-14 -23,-22 -39,-22 -25,0 -46,21 -46,46 0,13 2,26 7,39l41 110 31 47 0 106 -48 0 0 110 238 0 0 -110 -44 0zm-154 -387c-5,-2 -8,-7 -8,-12 0,-4 2,-7 5,-10 3,-2 7,-3 11,-1l31 10 0 29 -39 -16zm6 221l-41 -108c-3,-9 -5,-19 -5,-28 0,-8 7,-15 15,-15 5,0 10,3 12,7l54 90 30 -61 0 -134 -25 -50c-4,-9 -7,-18 -7,-28 0,-7 7,-13 14,-13 5,0 10,3 12,7l38 77 31 154 0 203 -13 65 -82 0 0 -116 -33 -50zm160 245l-174 0 0 -48 174 0 0 48z"/>
   <path class="fil5" d="M790 2037l38 0 0 -95 -38 0c-5,-22 -13,-42 -25,-61l27 -26 -67 -67 -27 26c-18,-11 -39,-20 -60,-25l0 -37 -95 0 0 37c-21,5 -42,14 -60,25l-27 -26 -67 67 27 26c-12,19 -20,39 -25,61l-38 0 0 95 38 0c5,21 13,41 25,60l-27 26 67 67 25 -24c-1,2 -1,3 -1,5 0,14 8,26 19,33 -2,5 -3,9 -3,14 0,22 18,40 39,40l111 0c22,0 40,-18 40,-40 0,-5 -1,-9 -3,-14 11,-7 18,-19 18,-33 0,-2 0,-3 0,-4l24 23 67 -67 -27 -26c12,-19 20,-39 25,-60zm-144 189l-111 0c-4,0 -7,-3 -7,-8 0,-4 3,-8 7,-8l111 0c4,0 8,4 8,8 0,5 -4,8 -8,8zm16 -47l-16 0 -111 0 -15 0c-5,0 -8,-4 -8,-8 0,-4 3,-8 8,-8l142 0c4,0 8,4 8,8 0,4 -4,8 -8,8zm-55 -145c18,-7 31,-24 31,-45 0,-26 -21,-47 -47,-47 -26,0 -48,21 -48,47 0,21 14,38 32,45l0 97 -32 0 0 -42 -8 -4c-34,-20 -55,-57 -55,-96 0,-61 50,-111 111,-111 61,0 110,50 110,111 0,39 -21,76 -55,96l-8 4 0 42 -31 0 0 -97zm-16 -29c-9,0 -16,-7 -16,-16 0,-9 7,-16 16,-16 9,0 16,7 16,16 0,9 -7,16 -16,16zm171 13c-5,26 -15,50 -30,72l-8 11 23 22 -22 23 -23 -23 -11 8c-3,2 -6,4 -9,6 -4,-2 -8,-4 -12,-5l0 -25c39,-26 63,-70 63,-118 0,-78 -64,-142 -142,-142 -79,0 -142,64 -142,142 0,48 24,92 63,118l0 25c-5,1 -9,3 -12,5 -4,-2 -7,-4 -10,-6l-11 -8 -23 23 -22 -23 23 -22 -8 -11c-15,-22 -25,-46 -30,-72l-2 -13 -32 0 0 -32 32 0 2 -13c5,-26 15,-50 30,-71l8 -11 -23 -23 22 -22 23 22 11 -7c21,-16 45,-26 72,-30l13 -2 0 -32 31 0 0 32 14 2c26,4 50,14 71,30l11 7 23 -22 22 22 -23 23 8 11c15,21 25,45 30,71l2 13 32 0 0 32 -32 0 -2 13z"/>
   <rect class="fil6" x="575" y="2289" width="31.6133" height="31.6132"/>
   <rect class="fil6" x="575" y="2353" width="31.6133" height="31.6132"/>
   <rect class="fil6" x="575" y="2416" width="31.6133" height="31.6132"/>
   <rect class="fil6" x="575" y="2479" width="31.6133" height="31.6132"/>
   <path class="fil2" d="M1078 3408c-3,-4 -8,-7 -14,-7l-86 0 -13 -38c-2,-7 -8,-11 -15,-11l-229 0c-9,0 -16,7 -16,16 0,1 0,2 0,3l33 212 0 0c1,8 8,14 16,14l245 0c7,0 13,-4 15,-10l65 -164c2,-5 2,-10 -1,-15zm-338 -23l198 0 6 16 -125 0c-6,0 -12,4 -15,10l-43 108 -21 -134zm248 179l-210 0 52 -130 210 0 -52 130z"/>
   <path class="fil2" d="M1078 3767c-3,-4 -8,-7 -14,-7l-86 0 -13 -38c-2,-6 -8,-11 -15,-11l-229 0c-9,0 -16,8 -16,17 0,0 0,1 0,2l33 212 0 0c1,8 8,14 16,14l245 0c7,0 13,-4 15,-10l65 -163c2,-5 2,-11 -1,-16zm-338 -23l198 0 6 16 -125 0c-6,0 -12,4 -15,10l-43 108 -21 -134zm248 180l-210 0 52 -131 210 0 -52 131z"/>
   <path class="fil2" d="M1070 4137c-2,-1 -4,-1 -6,-1l-86 0 -13 -38c-2,-7 -8,-11 -15,-11l-229 0c-9,0 -16,7 -16,16 0,1 0,2 0,3l33 212 0 0c1,8 8,14 16,14l245 0c7,0 13,-4 15,-10l65 -164c4,-8 0,-18 -9,-21zm-330 -17l198 0 6 16 -125 0c-6,0 -12,4 -15,10l-43 108 -21 -134zm248 179l-210 0 52 -130 210 0 -52 130z"/>
   <rect class="fil1" x="346" y="3450" width="32.6666" height="32.6665"/>
   <rect class="fil1" x="346" y="3385" width="32.6666" height="32.6665"/>
   <rect class="fil1" x="411" y="3385" width="32.6666" height="32.6665"/>
   <rect class="fil1" x="476" y="3385" width="32.6666" height="32.6665"/>
   <rect class="fil1" x="542" y="3385" width="32.6666" height="32.6665"/>
   <rect class="fil1" x="607" y="3385" width="32.6666" height="32.6665"/>
   <rect class="fil1" x="346" y="4201" width="32.6666" height="32.6665"/>
   <rect class="fil1" x="346" y="4267" width="32.6666" height="32.6665"/>
   <rect class="fil1" x="411" y="4267" width="32.6666" height="32.6665"/>
   <rect class="fil1" x="476" y="4267" width="32.6666" height="32.6665"/>
   <rect class="fil1" x="542" y="4267" width="32.6666" height="32.6665"/>
   <rect class="fil1" x="607" y="4267" width="32.6666" height="32.6665"/>
   <path class="fil2" d="M362 3515c-127,0 -261,37 -261,106l0 466c0,3 1,6 2,9 29,42 138,73 259,73 115,0 231,-33 258,-73 2,-3 3,-6 3,-9l0 -466c0,-69 -134,-106 -261,-106zm229 566c-23,24 -116,55 -229,55 -110,0 -204,-28 -229,-55l0 -114c47,28 134,46 229,46 94,0 181,-18 229,-46l0 114zm0 -155c-25,27 -119,55 -229,55 -110,0 -205,-28 -229,-55l0 -113c48,35 140,53 229,53 89,0 181,-18 229,-53l0 113zm0 -166c0,31 -87,74 -229,74 -142,0 -229,-43 -229,-74l0 -85c48,34 140,53 229,53 89,0 181,-19 229,-53l0 85zm-229 -65c-142,0 -229,-43 -229,-74 0,-30 87,-73 229,-73 142,0 229,43 229,73 0,31 -87,74 -229,74z"/>
   <path class="fil7 str0" d="M1197 5154c1,20 -180,661 -879,690"/>
   <polyline class="fil7 str1" points="352,5759 290,5802 227,5845 290,5889 353,5931 "/>
   <polyline class="fil7 str2" points="5406,5624 5513,5726 5620,5828 5513,5930 5406,6033 "/>
   <polyline class="fil7 str2" points="4688,5624 4580,5726 4473,5828 4580,5930 4688,6033 "/>
   <path class="fil7 str0" d="M1711 5154c-1,20 180,661 879,690"/>
   <polyline class="fil7 str1" points="2556,5759 2619,5802 2681,5845 2619,5889 2555,5931 "/>
  </g>
 </g>
</svg>
